<svg xmlns="http://www.w3.org/2000/svg" width="1000" height="1000" viewBox="0 0 1000 1000">
  <defs>
    <style>
      .cls-1 {
        fill-rule: evenodd;
      }
    </style>
  </defs>
  <path id="Shape_33_copy" data-name="Shape 33 copy" class="cls-1" d="M824.861,75H499.8C265.08,75,74.977,265.226,74.977,499.947S265.209,925,499.93,925,924.957,734.721,924.957,500l-0.033-325A100.052,100.052,0,0,0,824.861,75ZM632.22,787.007c-34.723,34.855-164.109,1.834-292.01-126.481C212.335,532.187,178.92,407.344,214.157,367.517c69.845-69.675,66.755-82.93,121.79-14.247,55.005,68.684,51.354,64.436-3.078,119.055-21.691,21.759,23.6,76.815,70.977,124.35s102.236,92.981,123.932,71.233c54.187-54.376,50.2-58.3,118.626-3.076C714.857,720.031,705.905,713.067,632.22,787.007ZM781.207,175.022c12.32,0,22.674,2.25,31.319,10.87s11.487,20.424,11.485,31.569V412.4L764.088,352.66l-85.9,85.633c-14.823,14.779-37.462,15.987-52.3,1.191l-67.472-67.267a37.543,37.543,0,0,1,1.736-51.6l85.895-85.633L585.887,175Z"/>
</svg>
