<svg xmlns="http://www.w3.org/2000/svg" width="1000" height="1000" viewBox="0 0 1000 1000">
  <defs>
    <style>
      .cls-1 {
        fill-rule: evenodd;
      }
    </style>
  </defs>
  <path class="cls-1" d="M500,75C265.279,75,75,265.279,75,500S265.279,925,500,925,925,734.721,925,500,734.721,75,500,75ZM470,675H400c0.012-.535,0-1.462,0-2a75.085,75.085,0,0,0-75-75V528A145,145,0,0,1,470,673C470,673.536,470.006,674.465,470,675Zm130,0H530c0-.535,0-1.464,0-2A205,205,0,0,0,325,468V398c151.878,0,275,123.122,275,275C600,673.536,600,674.464,600,675Zm130,0H660c0-.535,0-1.464,0-2A334.663,334.663,0,0,0,325,338V268c223.675,0,405,181.325,405,405C730,673.536,730,674.465,730,675Z"/>
</svg>
