<?xml version="1.0" encoding="utf-8"?>
<!-- Generator: Adobe Illustrator 23.0.3, SVG Export Plug-In . SVG Version: 6.00 Build 0)  -->
<svg version="1.1" id="Calque_1" xmlns="http://www.w3.org/2000/svg" xmlns:xlink="http://www.w3.org/1999/xlink" x="0px" y="0px"
	 viewBox="0 0 1000 1000" style="enable-background:new 0 0 1000 1000;" xml:space="preserve">
<g>
	<path d="M884.6,199.9H120.5c-45.2,0-81.9,36.7-81.9,81.9v436.6c0,45.2,36.7,81.9,81.9,81.9h764.1c45.2,0,81.9-36.7,81.9-81.9V281.8
		C966.4,236.6,929.8,199.9,884.6,199.9z M911.9,330.3v15.6v17.7v109.2v27.3V512v206.4c0,15.1-12.2,27.3-27.3,27.3H120.5
		c-15.1,0-27.3-12.2-27.3-27.3V512v-11.9v-27.3V363.7V346v-15.6v-48.5c0-15.1,12.2-27.3,27.3-27.3h764.1c15.1,0,27.3,12.2,27.3,27.3
		L911.9,330.3L911.9,330.3z"/>
	<polygon points="305.8,528.3 305.8,587.4 305.8,588.4 366,588.4 366,587.4 366,528.3 366,527.3 305.8,527.3 	"/>
	<polygon points="395.4,528.9 395.4,588.4 665.8,588.4 673.5,588.4 673.5,528.3 395.4,528.3 	"/>
	<polygon points="703.2,528.9 703.2,588.4 854.9,588.4 871.3,588.4 871.3,528.3 703.2,528.3 	"/>
	<polygon points="129.5,528.3 129.5,588.4 189.6,588.4 189.6,587.4 189.6,528.3 142,528.3 	"/>
	<polygon points="217.6,528.3 217.6,588.4 277.8,588.4 277.8,587.4 277.8,528.3 223.9,528.3 	"/>
	<path d="M847.6,300.2H205.9c-13.1,0-23.7,10.6-23.7,23.7v6.4v15.6v17.7v53.2c0,13.1,10.6,23.7,23.7,23.7h641.6
		c13.1,0,23.7-10.6,23.7-23.7v-53.2v-17.7v-15.6V324C871.3,310.9,860.7,300.2,847.6,300.2z"/>
	<polygon points="142.9,363.7 129.5,355.9 129.5,363.7 129.5,384.9 154.6,370.4 	"/>
</g>
</svg>
