<svg xmlns="http://www.w3.org/2000/svg" width="1000" height="1000" viewBox="0 0 1000 1000">
  <defs>
    <style>
      .cls-1 {
        fill-rule: evenodd;
      }
    </style>
  </defs>
  <path class="cls-1" d="M660.736,243.181c2.226,0.135,4.918.151,6.889,1.364,0.594,0.366,3.9,4.778,2.222,5.2-1.9.474-4.761-.269-5.769,1.968-0.5,1.116.205,2.413-.532,3.567-0.527.84-2.318,1.234-2.539,2.219-0.527,2.485,3.644.635,4.013,2.547,0.4,2.118-5.84,3.926-6,7.084-0.127,2.587-.25,5.079,3.01,4.273,3.818-.941,6.413-4.366,9.97-5.868,1.105-.463,3.491-0.294,4.3-0.827,4.084-2.682,9.423-.1,13.83-0.634,3.945-.481,6.582-4.827,5.922-8.74-0.344-2.024-1.121-1.819-3.123-2.1-4.141-.563-4.939-2.065-6.8-5.461-2.068-3.764-7.007-5.651-9.8-8.834-1.126-1.275-2.359-3.122-1.93-4.9s4.183-4.309.8-5.755c-1.858-.8-3.844.2-5.737-0.09-2.585-.409-0.763-2.787-2.514-3.808-1.391-.8-4.75.292-6.07,0.789-2.067.782-4.463,2.083-5.687,4.009-1.622,2.56-.178,3.612.338,6.027C656.846,241.282,659.784,235.038,660.736,243.181Zm-330.207,461.8a36.674,36.674,0,0,1-7.844-34.882,36.578,36.578,0,0,1-21.37-.12c-0.6,7.86-.364,15.665-1.679,23.49-1.733,10.287-6.98,19.448-10.784,29.035-1.109,2.787-2.611,6.346-1.961,9.42,1.037,4.895,6.221,5.6,3.455,11.222-1.987,4.051-5.057,7.664-7.588,11.393-1.4,2.05-2.707,4.333-2.672,6.9,0.025,1.9,1.178,3.571.955,5.453-0.31,2.6-2.664,4.357-3.179,6.88-0.619,3.081,1.011,6.93,2.273,9.679,5.351,11.6,27.393,30.766,41.484,26.538,5.156-1.551,8.184-9.822,7.726-14.653-0.617-6.655-4.55-3.133-9.123-4.725-8.458-2.958,6.467-20.529,5.835-26.185-0.272-2.37-2.2-4.33-2.288-6.876-0.241-6.9,13.209-18.66,19-21.114,5.985-2.539,10.331-6.956,15.359-10.641A83.574,83.574,0,0,1,330.529,704.979Zm98.544-186.564c16.591-16.592,28.155-28.154,28.155-28.154S622.4,326.1,621.929,325.56c-0.727-.814-1.459-1.57-2.191-2.3-0.234-.229-0.463-0.442-0.692-0.661-0.513-.487-1.025-0.961-1.54-1.413-0.259-.224-0.518-0.447-0.777-0.661-0.513-.429-1.027-0.833-1.54-1.225-0.234-.177-0.468-0.364-0.7-0.533-0.737-.532-1.473-1.037-2.211-1.5-0.056-.033-0.106-0.061-0.163-0.092-0.7-.428-1.392-0.823-2.089-1.194-0.249-.133-0.5-0.249-0.747-0.373-0.518-.26-1.036-0.506-1.56-0.735-0.27-.119-0.539-0.234-0.809-0.346-0.533-.219-1.066-0.421-1.605-0.612-0.235-.084-0.473-0.175-0.712-0.251-0.763-.255-1.53-0.488-2.3-0.687-0.07-.02-0.147-0.035-0.223-0.055-0.707-.179-1.419-0.336-2.13-0.478-0.255-.049-0.509-0.092-0.763-0.135-0.554-.1-1.1-0.185-1.662-0.262-0.269-.041-0.543-0.076-0.823-0.109q-0.863-.1-1.738-0.175c-0.229-.021-0.458.166-0.687,0.149-0.813-.056-1.626.083-2.445,0.083h-0.254c-0.7,0-1.4-.235-2.109-0.235-1.281,0-2.577-.063-3.888,0-0.3.016-.59,0-0.885,0.012-1.326.071-2.658,0.226-4.02,0.226H309.714l83.6,81.282L321.88,464.558l-51.887,51.777A52.882,52.882,0,0,0,255.12,560.9a50.515,50.515,0,0,0,14.214,28.966l38.482,38.487,5.664,5.664C324.653,622.84,390.485,557.005,429.073,518.415ZM710.711,415.7l-44.149-44.147-64.517,64.517c-32.252,32.249-72.376,72.378-110.7,110.7L358.852,679.264c0.745,0.831,1.49,1.614,2.237,2.367,0.248,0.248.5,0.474,0.743,0.716,0.5,0.49,1.009.971,1.516,1.426,0.288,0.259.579,0.508,0.869,0.757,0.47,0.4.94,0.794,1.412,1.169,0.3,0.239.6,0.475,0.9,0.7,0.474,0.36.949,0.7,1.426,1.033,0.29,0.2.581,0.41,0.874,0.6,0.518,0.344,1.041.663,1.564,0.975,0.248,0.151.494,0.311,0.742,0.454q1.148,0.655,2.3,1.222c0.1,0.048.2,0.089,0.305,0.137,0.677,0.323,1.359.628,2.044,0.907,0.273,0.113.548,0.208,0.824,0.317,0.516,0.2,1.033.39,1.554,0.562,0.311,0.106.623,0.2,0.935,0.295,0.494,0.152.986,0.3,1.483,0.428,0.322,0.087.642,0.167,0.965,0.246,0.5,0.123,1.011.231,1.517,0.333,0.31,0.063.618,0.13,0.929,0.185,0.569,0.105,1.142.189,1.716,0.27,0.25,0.036.5,0.078,0.748,0.109q1.235,0.156,2.483.254c0.158,0.01.318,0.015,0.476,0.026,0.684,0.046,1.371.085,2.063,0.106,0.307,0.011.619,0.011,0.93,0.016,0.516,0.009,1.032.014,1.551,0.009,0.289,0,.584-0.012.873-0.017,0.43-.008.86-0.013,1.292-0.027,0.292-.01.579,0.171,0.873,0.156,1.028-.045,2.065,0,3.113,0H671.064l-83.6-83.244L708.1,491.028l2.572-2.619A51.338,51.338,0,0,0,710.711,415.7ZM500,75C265.279,75,75,265.279,75,500S265.279,925,500,925,925,734.721,925,500,734.721,75,500,75ZM389.78,157.8c3.38,0.59,7.177.854,10.447-.4,0.745-.284,1.426-1.339,2.293-1.194,0.971,0.168,1.3,1.713,1.705,2.434a9.867,9.867,0,0,1,.56,1.055c0.009,0.021,2.432-.419,2.675-0.44a11.518,11.518,0,0,1,2.542.082,7.957,7.957,0,0,1,4.255,1.738c0.427,0.376,2.119,1.484,1.692,2.244-0.33.557-1.606,0.476-2.139,0.5-0.646.033-1.286,0.041-1.922,0.132-1.083.163-2.171,0.325-3.263,0.458a10.98,10.98,0,0,1-2.895.259c-1.484.938,3.383,1.1,4.9,1.86,1.25,0.635,2.755.793,3.933,1.558,2.034,1.311-2.261,2.115-2.927,2.435-1.392.658-2.745,1.38-4.077,2.167a16.865,16.865,0,0,0-4.526,3.63,7.67,7.67,0,0,0-1.832,4.14,10.116,10.116,0,0,0,1.2,5.279,43.606,43.606,0,0,0,4.226,6.6c0.2,0.28.392,0.577,0.61,0.842,8.682,10.572,29.309,25.716,43.87,24.052,16.022-1.842,14.685-22.187,29.939-27.9s31.1-9.739,47.027-13.048A122.328,122.328,0,0,0,541.1,172.4a159.819,159.819,0,0,1,18.335-4.539c1.047-.214,2.114-0.269,3.171-0.425,0.331-.053,2.852-0.48,1.769-1.107a7.984,7.984,0,0,0-2.561-.641c-0.966-.171-1.933-0.3-2.893-0.445a19.232,19.232,0,0,1-5.286-1.232c-0.412-.2-1.256-0.382-1.124-0.964,0.147-.719,1.276-0.556,1.784-0.515,2.105,0.142,4.265-.095,6.38-0.095a46.809,46.809,0,0,0,6.643-.315c1.062-.152,2.109-0.208,3.166-0.432,0.514-.1,1.327.041,1.272-0.712a4.673,4.673,0,0,0-1.368-2.774c-0.366-.356-0.849-0.565-1.179-0.951-0.5-.572-0.244-0.938.091-1.535a12.129,12.129,0,0,0,1.418-2.806,30.84,30.84,0,0,0,.453-3.426c0.381-2.608,5.113-3.055,6.974-3.462,2.546-.559,6.82-1.778,7.705-4.655,0.965-3.111-2.167-4.467-2.447-7.087a373.681,373.681,0,0,1,145.81,68.9c-8.428,6.75-13.5,17.149,4.458,24.294,6.819,2.711,12.542-5.28,18.616-4.92,3.013,2.744,5.973,5.558,8.906,8.407a5.258,5.258,0,0,1-.415,4.8c-1.214,1.8-4.712,4.346-6.953,2.811-2.826-1.916.914-8.255-4.382-9.134a9.8,9.8,0,0,0-9.469,4.415c-2.506,4,3.812,9.731,1.2,13.675-3.4,5.139-11.818,1.167-16.591,3.268-9.668,4.26-18.07,13.45-28.408,18.1-4.688,2.109-10.274,1.69-15.275,2.285-3.268.381-8.691,0.79-10.521,4.026-2.154,3.811,9.739,8.667,11.966,10.208,6.073,4.209,8.945,9.581,2.062,14.863-8.6,6.577-24.336-6.1-33.832.122a6.9,6.9,0,0,0-1.265,1.131,0.391,0.391,0,0,1,.056.066,36.649,36.649,0,0,1,7.385,34.871,36.165,36.165,0,0,1,21.628.665c0.107-.063.188-0.141,0.306-0.2,1.408-.691,3-1.047,4.188-2.145,1.967-1.824,1.128-4.92,1.931-7.278,0.813-2.4,2.719-3.685,4.418-5.414,1.163-1.179,2.011-2.851,3.375-3.807,2.175-1.52,5.2-.991,7.593-2.069,3.894-1.771,1.728-6.826,5.2-9.138,2.45-1.632,5.373-.646,7.92.127,6.958,2.1,11.425-2.1,18.059-2.624,0.665-.05,1.789-1.184,2.485-1.463,2.191-.9,5.144-1.073,7.03.533,1.545,1.307,2.063,3.533,3.334,5.078,1.957,2.376,5.179,3.551,7.706,5.2,2.846,1.881,4.681,2.335,7.812,3.169,3.411,0.918,6.333,4.1,9.515,5.722,2.491,1.267,6.436,3.089,6.385,6.418-0.091,5.841-9.846,4.293-13.256,4.448-1.221.051-6.279,0.4-6.716,1.673-0.65,1.9,8.037,4.986,9.374,5.21,3.762,0.638,5.342-2.008,7.889-4.245,2.144-1.876,5.026-3.044,6.628-5.484,1.341-2.038-.072-4.26.223-6.415,0.244-1.814,1.738-1.8,2.292-3.248,1.018-2.706-4.95-5.074-6.643-5.708a33.514,33.514,0,0,0-4.94-1.392c-1.063-.218-3.395-0.118-4.28-0.706-3.213-2.149-3.63-5.61-6.735-8.08-11.223-5.5-2-12.806,3.05-6.326,7.838,0.336,9.744,8.567,18.36,9.234,4.111,5.211,9.1,2.418,12.071,9.022,0.524,8.622,2.257,8.5,9.937,13.9,2.628,1.848,1.54,11.094,7.1,9.589,1.764-.484,3.827-2.654,5.25-3.766,0.824-.646,2.766-1.6,3.289-2.506,1.626-2.791-3.481-2.984-4.472-4.692-4.6-7.975,6.607-10.291,12.163-10.013a4.879,4.879,0,0,1,3.855,2.091c0.4,0.748.789,1.507,1.188,2.258,0.786,2.077,1.143,4.494,1.64,6.307a13.485,13.485,0,0,0,3.126,5.934,11.6,11.6,0,0,0,2.371,1.87q3.746,7.83,7.15,15.856,3.144,7.43,5.946,14.961c-3.486.935-6.951,1.781-10.638,0.576a25.627,25.627,0,0,0-8.123-1.641c-5.265-.077-8.91-2.459-13.82-3.755-3.807-1.008-8.138-3.235-12.036-3.489-4.951-.315-9.393,2.094-10.628,6.963-0.493,1.937-.676,4.344-2.725,5.312-3.43,1.617-7.39-1.651-10.689-2.3a38.521,38.521,0,0,1-7.762-1.843,9.815,9.815,0,0,1-3.028-1.959c-0.7-.7-1.5-2.732-2.277-3.121a29.5,29.5,0,0,0-12.566-3.1c-4.02-.216-7.671-0.935-10.969-3.377-5.327-3.955,1.036-5.3.076-9.91-0.142-.706-1.8-2.6-1.677-3.077,1.773-7.241-6.13-5.538-11.711-4.226-10.4,1-23.488-2.641-32.46,1.491a55.628,55.628,0,0,0-11.12,1.576,38.091,38.091,0,0,1,2.982,2.661l44.181,44.182a88.007,88.007,0,0,1,9.1,113.345,6.085,6.085,0,0,1,.757.773c3.889,4.922.041,14.628,0.3,20.189,0.417,8.729,2.5,12.986,7.447,19.977,7.848,11.076,17.825,22.6,15.482,37.133-1.983,12.3-14.1,20.259-9.48,33.7,4.027,11.71,12.387,18.758,15.3,31.69,2.385,10.59,4.906,13.256,10.283,21.287,5.887,8.775,13.846,46.6,32.267,26.189a8.722,8.722,0,0,1,3.168-.446A375.185,375.185,0,0,1,131.378,430.622c3.057,0.878,6.272,1.5,9.457,3.163,1.312,2.428,2.574,2.207,5.538,2.489,5.766,2.307,11.53,5.875,17.838,5.875,8.082-2.037,10.992-5.108,16.161,1.489,4.656,5.938,16.529,8.784,23.511,10.121,4.021,0.767,7.726.539,10.943,3.238,2.862,2.413,4.471,6.139,6.863,8.974,4.811,5.7,9.8,9.815,17.167,11.632,5.025,1.239,10.391,1.659,15.475,2.884l10.3-10.286c-14.074-2.3-24.091-12.49-34.776-21.174-5.934-4.822-11.921-9.574-19.292-12.022,0.158,0.051,2.5-19.421-.767-22.2-8.222-7.014-17.756,8.278-24.642,11.027-16.766,6.709-26.531-6.262-27.985-22.294-3.412-37.6,54.7-46.112,78.641-27.686,2.4,1.85,10.717,14.267,13.642,13.378,4.773-1.451,1.383-16.366,1.584-19.446,0.577-9.349,1.159-13.392,10.308-18.772,5.136-3.014,8.663-7.65,11.192-12.963,1.661-3.5,2.462-6.695,4.977-9.061a36.42,36.42,0,0,1,32.2-53.46h27.809c-0.535-.356-1.065-0.726-1.614-1.062-0.575-.353-1.169-0.669-1.761-0.973a22.925,22.925,0,0,0-7.731-2.836c-0.656-.077-1.278,0-1.876-0.108-0.265-.05-1.268-0.231-0.816-0.538a2.941,2.941,0,0,1,1.086-.176c0.53-.078,1.062-0.169,1.587-0.261a21.389,21.389,0,0,1,3.3-.391c3.865-.1,7.662.939,11.429,1.717a48.911,48.911,0,0,0,5.639.915,8.545,8.545,0,0,0,2.994-.107c0.762-.206,2.681.382,2.528-0.287-0.383-.709-1.9-1.308-1.451-2.32,0.293-.666,1.343-1.022,1.948-1.326a18.338,18.338,0,0,1,2.52-.954c3.8-1.212,7.5-2.645,11.406-3.538a25.964,25.964,0,0,1,5.666-.729,21.085,21.085,0,0,1,2.4.127c0.709,0.079,1.931.059,2.488,0.565,0.63,0.582-.129,1.387-0.511,1.865a16.675,16.675,0,0,0-1.578,2.316,22.69,22.69,0,0,0-2.626,7.6c-0.022.163,0,.335-0.016,0.5h28.454c-3.117-3.309-9.871-5.812-12.058-9.843-2.719-5.037-.561-11.4-4.468-16.318-4.1-5.152-10.847-5.124-16.113-8.278-7.528-4.506-11.476-13.216-18.77-17.963-11.011-7.167-16.3-.005-27.926-0.943-7.142-.566-11.1-5.9-16.487-9.83-9.956-7.279-22.154-11.17-34.312-9.227q6.249-4.838,12.677-9.414c0.2,0.015.4,0.03,0.585,0.055,10.577,1.434,19.825,7.111,29.864,10.288,2.1,0.666,17.44,1.941,16.187,1.1-2.616-1.766-13.676-4.239-5.462-5.167,3.621,0.77,12.54,3.838,14.144.107,5.054-3.84,7.428-3.744,13.965-3.744,6.181-4.335,12.135-7.578,13.263-14.831-1.722-4.006.178-6.977-.894-10.382-8.273-2.148-6.834-6.275-5.823-11.6-0.919-1.178-4.059-2.749-7.612-4.086,0.769-.331,1.528-0.679,2.3-1q13.607-5.754,27.538-10.388C387.237,147.613,391.24,152.271,389.78,157.8ZM234.835,234.835a379.905,379.905,0,0,1,28.29-25.572c1.22,6.624,5.058,19.063,5.291,20.015,3.659,14.862-5.083,5.428-10.8,14.311-2.4,3.728,2.437,7.138.874,10.234-6.606,13.086-15.427-8.059-22.939-12.769a20.5,20.5,0,0,0-4.7-2.143C232.177,237.549,233.49,236.18,234.835,234.835Z"/>
</svg>
