<svg xmlns="http://www.w3.org/2000/svg" width="1000" height="1000" viewBox="0 0 1000 1000">
  <defs>
    <style>
      .cls-1 {
        fill-rule: evenodd;
      }
    </style>
  </defs>
  <path class="cls-1" d="M500,100C265.279,100,75,251.1,75,437.5c0,144.464,114.3,267.725,275,315.874V925L500,775c234.721,0,425-151.1,425-337.5S734.721,100,500,100ZM287.5,500A62.5,62.5,0,1,1,350,437.5,62.5,62.5,0,0,1,287.5,500ZM500,500a62.5,62.5,0,1,1,62.5-62.5A62.5,62.5,0,0,1,500,500Zm212.5,0A62.5,62.5,0,1,1,775,437.5,62.5,62.5,0,0,1,712.5,500Z"/>
</svg>
