<svg xmlns="http://www.w3.org/2000/svg" width="1000" height="1000" viewBox="0 0 1000 1000">
  <defs>
    <style>
      .cls-1 {
        fill-rule: evenodd;
      }
    </style>
  </defs>
  <path id="E_shop" data-name="E shop" class="cls-1" d="M500,750a75,75,0,1,1-75-75A75,75,0,0,1,500,750Zm300,0a75,75,0,1,1-75-75A75,75,0,0,1,800,750ZM925,262.5A37.61,37.61,0,0,0,887.5,225H287.932l-21.444-51.626A37.621,37.621,0,0,0,232.6,150.292a20.518,20.518,0,0,0-3.308-.292H112.5A37.61,37.61,0,0,0,75,187.5h0A37.61,37.61,0,0,0,112.5,225h81.578a18.937,18.937,0,0,1,17.49,11.675L352.6,576.226a37.5,37.5,0,0,0,34.242,23.758c0.185,0,.369.012,0.554,0.013,0.031,0,.062,0,0.094,0H788.578a11.507,11.507,0,0,0,1.333-.085A37.51,37.51,0,0,0,824,571.085L921.192,279.2c0.092-.274.167-0.549,0.251-0.823A37.144,37.144,0,0,0,925,262.5h0Zm-95.053,53.331L766.71,505.741A28.151,28.151,0,0,1,740,525H431.33a28.152,28.152,0,0,1-26-17.354L326,316.644A12.029,12.029,0,0,1,337.106,300H818.533A12.031,12.031,0,0,1,829.947,315.831Z"/>
</svg>
