<svg xmlns="http://www.w3.org/2000/svg" width="1000" height="1000" viewBox="0 0 1000 1000">
  <defs>
    <style>
      .cls-1 {
        fill-rule: evenodd;
      }
    </style>
  </defs>
  <path id="Forme_1" data-name="Forme 1" class="cls-1" d="M125,400L441.324,711.692a80.879,80.879,0,0,0,114.339,0l0.012-.008L875,400V825H175a50.083,50.083,0,0,1-50-50V400ZM464.637,664.953a50.126,50.126,0,0,0,70.574.113l251.82-249.389C796.522,406.286,800,393.348,800,380V225a49.989,49.989,0,0,0-50-50H249.813A49.83,49.83,0,0,0,200,225V380c0,13.292,4.828,26.36,14.25,35.742ZM300.343,250a25.007,25.007,0,0,1,25.015-25H674.567a25.007,25.007,0,0,1,25.015,25h0a25.007,25.007,0,0,1-25.015,25H325.358a25.007,25.007,0,0,1-25.015-25h0Zm25.015,75H524.477a25,25,0,1,1,0,50H325.358A25,25,0,1,1,325.358,325Z"/>
</svg>
