<?xml version="1.0" encoding="utf-8"?>
<!-- Generator: Adobe Illustrator 23.0.3, SVG Export Plug-In . SVG Version: 6.00 Build 0)  -->
<svg version="1.1" id="Calque_1" xmlns="http://www.w3.org/2000/svg" xmlns:xlink="http://www.w3.org/1999/xlink" x="0px" y="0px"
	 viewBox="0 0 1000 1000" style="enable-background:new 0 0 1000 1000;" xml:space="preserve">
<style type="text/css">
	.st0{fill-rule:evenodd;clip-rule:evenodd;fill:#FFFFFF;}
</style>
<path id="Community_SMS_2_" class="st0" d="M886.6,45.3h-856v619.5c0,48.9,39.7,88.5,88.6,88.5h0h118.1v206.5l206.6-206.5h531.3
	V133.8C975.1,84.9,935.5,45.3,886.6,45.3L886.6,45.3z M614.2,179.5c40-28.1,95.2-18.6,123.3,21.4c28.1,40,18.6,95.2-21.4,123.3
	c-31.1,21.9-72.8,21.5-103.5-1.1C641.2,279.6,641.8,223.5,614.2,179.5z M501.7,146.8c57,0,103.2,46.3,103.2,103.3
	c0,57-46.3,103.2-103.3,103.2c-57,0-103.2-46.3-103.2-103.3C398.4,193,444.6,146.8,501.7,146.8C501.7,146.8,501.7,146.8,501.7,146.8
	z M340.5,163.3c17.6,0,34.8,5.2,49.3,15c-28.6,44.6-28,101.9,1.6,145.9c-40,28.2-95.2,18.6-123.3-21.4
	c-28.2-40-18.6-95.2,21.4-123.3C304.4,168.9,322.2,163.3,340.5,163.3L340.5,163.3z M325.7,576.3h-64.9c-29.3,0-53.1-23.8-53.1-53.1
	l0,0V417c0-34.4,16.7-66.8,44.8-86.6c26,29.2,64.8,43.6,103.5,38.4c-19.7,25.7-30.4,57.2-30.3,89.5L325.7,576.3L325.7,576.3z
	 M650.4,635.3H414.3c-32.6,0-59-26.4-59-59l0,0v-118c0-44,24.4-84.3,63.4-104.6c48.9,39.1,118.4,38.8,166.9-0.7
	c39.8,20.1,64.9,60.8,64.9,105.4V635.3L650.4,635.3z M798,576.3H680v-118c0.1-32.4-10.6-63.8-30.3-89.5
	c38.7,5.1,77.5-9.3,103.5-38.4c28.1,19.9,44.8,52.2,44.8,86.6V576.3z"/>
</svg>
