<?xml version="1.0" encoding="utf-8"?>
<!-- Generator: Adobe Illustrator 23.0.3, SVG Export Plug-In . SVG Version: 6.00 Build 0)  -->
<svg version="1.1" id="Calque_1" xmlns="http://www.w3.org/2000/svg" xmlns:xlink="http://www.w3.org/1999/xlink" x="0px" y="0px"
	 viewBox="0 0 1000 1000" style="enable-background:new 0 0 1000 1000;" xml:space="preserve">
<style type="text/css">
	.st0{fill-rule:evenodd;clip-rule:evenodd;fill:#FFFFFF;}
</style>
<path id="Family_Place_2_" class="st0" d="M255.5,591.9c0-11.5-2-23-6.1-33.8c-32.2-18.3-56.6-47.7-68.8-82.7l-8.4-8.4l-27.8,27.8
	L116.8,467v27.8H89v27.8H61.3v27.8H33.5l27.8,55.5H33.5l56.9,55.5l0,0c38.3,37.6,99.8,36.9,137.4-1.4
	C245.6,641.7,255.6,617.3,255.5,591.9z M119.4,710.6c-1.7,20-2.6,40.6-2.6,61.7h111c0-26.6,1.4-53.1,4.2-79.5
	C199.5,716.5,157.6,723.1,119.4,710.6z M443,522.1c-37.9,46.2-99.3,66.1-157.1,50.9c-19.1,55.6-30.3,124.6-30.3,199.3h138.8
	c0-92.9,16.8-180.6,47.2-247.1C442.1,524.1,442.6,523.1,443,522.1L443,522.1z M796.8,605.7c-23.4,0-46.4-6.6-66.3-19
	c16,55.3,24.6,119.1,24.6,185.6H894c0-69.9-9.9-134.7-26.7-188.3C846.5,598.2,821.9,605.8,796.8,605.7z M974.2,395
	c-7-9.3-12.9-1.9-12.9-1.9c-20.1,23.3-35.2-1.9-35.2-1.9s-11.8-23.5-44.4-23.5s-43.1,25.4-43.1,25.4l0,0
	c-27-12.8-58.3-12.6-85.1,0.7c-5.3,39.7-23.7,76.5-52.3,104.6c9.7,52.8,60.4,87.7,113.1,78c52.8-9.7,87.7-60.4,78-113.1
	c-4.5-24.6-18.3-46.4-38.5-61.1c17.6-23.4,40.1-7,43.2,12.2c5.7,35.1,34.5,47.2,55.9,35.9C979.8,436.2,980.1,403,974.2,395z
	 M574.8,550.2c-35.5,0.1-70.2-10.4-99.8-30.1c-32.4,61.1-52.9,151.4-52.9,252.1h305.3c0-100.8-20.5-191.1-52.9-252.1
	C645,539.8,610.2,550.3,574.8,550.2z M574.8,522.5c84.3,0,152.7-68.3,152.7-152.7s-68.3-152.7-152.7-152.7s-152.7,68.3-152.7,152.7
	S490.4,522.5,574.8,522.5z M207.1,466.9c23,65.1,94.4,99.1,159.4,76.1c29.4-10.4,53.9-31.4,68.6-59
	c-36.3-44.3-49.4-103.2-35.3-158.7C344.6,284,266.3,295.2,225,350.4c-6.3,8.3-11.4,17.4-15.4,27.1v0c-22.1,49.2-65,6.2-65,6.2
	C144.5,461.7,200.1,466.6,207.1,466.9L207.1,466.9z"/>
</svg>
