<svg xmlns="http://www.w3.org/2000/svg" width="1000" height="1000" viewBox="0 0 1000 1000">
  <defs>
    <style>
      .cls-1 {
        fill-rule: evenodd;
        mix-blend-mode: screen;
      }
    </style>
  </defs>
  <path class="cls-1" d="M500,75C265.279,75,75,265.279,75,500S265.279,925,500,925,925,734.721,925,500,734.721,75,500,75Zm0,75c193.3,0,350,156.7,350,350H699.713A286.245,286.245,0,0,0,633.43,328.555L599.238,514.307A100.137,100.137,0,1,1,421.2,438.234L548.289,259.049A287.571,287.571,0,0,0,201.357,317.4C262.881,216.991,373.615,150,500,150ZM441.429,452.931l0.017,0.007A75.146,75.146,0,1,0,574.612,509.9l0.016,0.007,60.85-330.575Z"/>
</svg>
