<svg xmlns="http://www.w3.org/2000/svg" width="1000" height="1000" viewBox="0 0 1000 1000">
  <defs>
    <style>
      .cls-1 {
        fill-rule: evenodd;
      }
    </style>
  </defs>
  <path class="cls-1" d="M441.521,452.839l0.016,0.007A75.147,75.147,0,1,0,574.7,509.808l0.016,0.006L635.569,179.24ZM500,925c234.721,0,425-190.279,425-425S734.721,75,500,75,75,265.279,75,500,265.279,925,500,925ZM181.613,354.482A350.632,350.632,0,0,1,243.9,261.47l53.08,53.08a275.562,275.562,0,0,0-45.991,68.669l45.922,19.021-9.567,23.1L172.012,377.565c1.727-4.62,3.533-9.217,5.462-13.778,1.324-3.131,2.706-6.231,4.116-9.314Zm531.043,70.855-9.567-23.1,45.922-19.021A275.535,275.535,0,0,0,703.02,314.55L756.1,261.468l0.006,0.007a350.584,350.584,0,0,1,62.282,93.006l0.019-.008c1.41,3.083,2.792,6.183,4.116,9.314,1.929,4.561,3.735,9.158,5.462,13.778ZM460.881,591.82a100.076,100.076,0,0,1-60.789-92.12h0a100.257,100.257,0,0,1,21.2-61.557L566.677,233.16a275.275,275.275,0,0,0-252.015,63.717L261.582,243.8a348.642,348.642,0,0,1,221.211-93.38c0.451-.022.9-0.03,1.354-0.05,2.388-.106,4.78-0.2,7.181-0.26Q495.656,150,500,150c2.707,0,5.408.039,8.105,0.1,1.056,0.024,2.108.065,3.162,0.1,1.584,0.05,3.167.1,4.748,0.175q2.077,0.094,4.148.215,1.726,0.1,3.448.212c1.676,0.112,3.351.229,5.021,0.364,0.611,0.049,1.22.106,1.831,0.159a348.453,348.453,0,0,1,82.066,17.189l0.027-.038q11.953,4.062,23.657,9Q648,182.46,659.33,188.256l-0.009.045a350.913,350.913,0,0,1,79.1,55.493l-53.083,53.083A276.091,276.091,0,0,0,644.964,266.3L599.33,514.216A100.115,100.115,0,0,1,460.881,591.82Z"/>
</svg>
