<svg xmlns="http://www.w3.org/2000/svg" width="1000" height="1000" viewBox="0 0 1000 1000">
  <defs>
    <style>
      .cls-1 {
        fill-rule: evenodd;
      }
    </style>
  </defs>
  <path class="cls-1" d="M500,75C265.279,75,75,265.279,75,500S265.279,925,500,925,925,734.721,925,500,734.721,75,500,75ZM831.747,675H705.1c11.063-46.188,17.877-96.781,19.512-150H874.182a371.393,371.393,0,0,1-28.631,120.952Q839.26,660.825,831.747,675Zm-677.3-29.048A371.393,371.393,0,0,1,125.818,525H275.387c1.635,53.219,8.449,103.812,19.512,150H168.253Q160.767,660.817,154.449,645.952ZM168.253,325H294.9c-11.063,46.189-17.877,96.782-19.512,150H125.818a371.393,371.393,0,0,1,28.631-120.952Q160.74,339.175,168.253,325Zm490.274,20.5A697.239,697.239,0,0,1,674.58,475H525V325H653.554Q656.179,335.082,658.527,345.5ZM525,275V129.439c10.492,3.706,20.98,9.722,31.371,18.023,21.1,16.861,41.347,42.939,58.539,75.412A425.68,425.68,0,0,1,637.977,275H525ZM443.629,147.462c10.391-8.3,20.879-14.317,31.371-18.023V275H362.023a425.682,425.682,0,0,1,23.068-52.126C402.282,190.4,422.525,164.323,443.629,147.462ZM475,325V475H325.42a697.239,697.239,0,0,1,16.053-129.5q2.335-10.426,4.973-20.5H475ZM341.473,654.5A697.239,697.239,0,0,1,325.42,525H475V675H346.446Q343.821,664.919,341.473,654.5ZM475,725V870.562c-10.492-3.707-20.98-9.723-31.371-18.024-21.1-16.861-41.347-42.938-58.538-75.412A425.682,425.682,0,0,1,362.023,725H475Zm81.371,127.538c-10.391,8.3-20.879,14.317-31.371,18.024V725H637.977a425.68,425.68,0,0,1-23.067,52.126C597.718,809.6,577.475,835.677,556.371,852.538ZM525,675V525H674.58a697.239,697.239,0,0,1-16.053,129.5q-2.336,10.427-4.973,20.5H525ZM724.613,475c-1.635-53.218-8.449-103.811-19.512-150H831.747q7.487,14.183,13.8,29.048A371.393,371.393,0,0,1,874.182,475H724.613Zm40.552-240.165A378.352,378.352,0,0,1,800.054,275H690.917c-16.979-51.292-39.591-95.245-66.2-128.778q10.711,3.781,21.233,8.227A373.819,373.819,0,0,1,765.165,234.835ZM354.048,154.449q10.518-4.449,21.233-8.227c-26.607,33.533-49.219,77.486-66.2,128.778H199.946a378.352,378.352,0,0,1,34.889-40.165A373.819,373.819,0,0,1,354.048,154.449ZM234.835,765.165A378.352,378.352,0,0,1,199.946,725H309.083c16.979,51.292,39.591,95.245,66.2,128.779q-10.713-3.783-21.234-8.228A373.819,373.819,0,0,1,234.835,765.165Zm411.117,80.386q-10.518,4.449-21.234,8.228c26.608-33.534,49.22-77.487,66.2-128.779H800.054a378.352,378.352,0,0,1-34.889,40.165A373.819,373.819,0,0,1,645.952,845.551Z"/>
</svg>
