<?xml version="1.0" encoding="utf-8"?>
<!-- Generator: Adobe Illustrator 23.0.3, SVG Export Plug-In . SVG Version: 6.00 Build 0)  -->
<svg version="1.1" id="Calque_1" xmlns="http://www.w3.org/2000/svg" xmlns:xlink="http://www.w3.org/1999/xlink" x="0px" y="0px"
	 viewBox="0 0 1000 1000" style="enable-background:new 0 0 1000 1000;" xml:space="preserve">
<g>
	<path d="M418.2,277.7h-277c-31.1,0-56.2,25.2-56.2,56.2s25.2,56.2,56.2,56.2h141.2L55.1,617.5c-22,22-22,57.6,0,79.5
		c22,22,57.6,22,79.5,0l227.3-227.3V611c0,31.1,25.2,56.2,56.2,56.2c31.1,0,56.2-25.2,56.2-56.2V334
		C474.4,302.9,449.2,277.7,418.2,277.7z"/>
	<path d="M586.9,667.2h277c31.1,0,56.2-25.2,56.2-56.2s-25.2-56.2-56.2-56.2H722.6L950,327.4c22-22,22-57.6,0-79.5
		c-22-22-57.6-22-79.5,0L643.1,475.2V334c0-31.1-25.2-56.2-56.2-56.2c-31.1,0-56.2,25.2-56.2,56.2v277
		C530.6,642,555.8,667.2,586.9,667.2z"/>
</g>
</svg>
