<svg xmlns="http://www.w3.org/2000/svg" width="1000" height="1000" viewBox="0 0 1000 1000">
  <defs>
    <style>
      .cls-1 {
        fill-rule: evenodd;
      }
    </style>
  </defs>
  <path id="Package_service" data-name="Package service" class="cls-1" d="M894.08,349.944L570.822,216.009,398.667,631.739a50.006,50.006,0,0,0,27.051,65.326L748.976,831,921.13,415.269l-0.024-.009C931,389.972,919.273,360.382,894.08,349.944ZM389,700H350c-31.8,0-59.158-14.4-70.03-42.419l-0.17.07,0-.01c-0.153.065-.3,0.137-0.456,0.2a37.4,37.4,0,0,1-47.856-18.012l-0.085.034L149.29,441.316,274.9,389.2V281.008L65,368.1,236.856,783.662a49.868,49.868,0,0,0,65.192,27.047l166.8-69.2-52.662-21.819A171.667,171.667,0,0,1,389,700ZM274.9,604.82V414.71l-93.423,39.674,68.347,161.084Zm74.966,69.173h26.371a0.036,0.036,0,0,0,0,.009c-0.21-.478-0.434-0.952-0.635-1.437a74.53,74.53,0,0,1,0-57.4L432,478.979c-75.826-77.314-95.184-154.8-74.221-175.786,45.09-45.106,40.842-50.582,74.514-8.689,33.653,41.894,31.42,39.3-1.883,72.617-10.315,10.318,4.131,32.907,24.691,56.072l92.661-223.762A24.964,24.964,0,0,1,580.411,185.9l119.3,49.429V224h-0.025c-0.534-27.15-22.687-50-49.952-50H299.893V623.993A49.99,49.99,0,0,0,349.87,673.993Zm362.8-282.917a145.958,145.958,0,1,0,79.241,190.6A145.939,145.939,0,0,0,712.671,391.076Zm26.717,233.941-40.2-16.591a255.846,255.846,0,0,0,25.842-45.064l47.478,19.593A127.545,127.545,0,0,1,747.575,617.6Q743.63,621.5,739.388,625.017ZM528.2,527.069a127.564,127.564,0,0,1,6.754-42.149l47.479,19.594a255.825,255.825,0,0,0-13.454,50.176l-40.2-16.591C528.426,534.444,528.227,530.766,528.2,527.069Zm46.421-100.084,40.2,16.591a255.846,255.846,0,0,0-25.842,45.064L541.5,469.047A127.523,127.523,0,0,1,566.43,434.4Q570.375,430.5,574.616,426.985Zm152.946,70.732A239.461,239.461,0,0,1,715.7,540.934l-47.482-19.595,19.647-47.62,40.808,16.84Q728.18,494.1,727.562,497.717ZM694.41,457.845l19.066-46.211a37.328,37.328,0,0,1,7.6,9.831c4.491,8.118,7.5,19.048,8.705,31.61a146.249,146.249,0,0,1,.5,19.57ZM685.285,406.7a37.317,37.317,0,0,1,12.319-1.612L678.538,451.3l-35.863-14.8a146.274,146.274,0,0,1,14.15-13.526C666.536,414.911,676.378,409.284,685.285,406.7Zm-13.3,60.473-19.648,47.62-47.482-19.595a239.438,239.438,0,0,1,22.059-39.01q2.107-3,4.263-5.856Zm-85.546,87.115a239.473,239.473,0,0,1,11.867-43.216l47.482,19.6-19.648,47.62-40.807-16.84Q585.823,557.9,586.443,554.284ZM619.6,594.157l-19.067,46.211a37.318,37.318,0,0,1-7.6-9.832c-4.491-8.117-7.5-19.048-8.7-31.609a146.083,146.083,0,0,1-.5-19.57Zm9.124,51.149a37.317,37.317,0,0,1-12.319,1.612l19.067-46.211,35.862,14.8a146.044,146.044,0,0,1-14.15,13.526C647.468,637.09,637.627,642.717,628.719,645.306Zm13.3-60.473,19.648-47.62,47.481,19.594a239.4,239.4,0,0,1-22.058,39.011q-2.107,3-4.264,5.856Zm89.561-37.345a255.914,255.914,0,0,0,13.454-50.176l40.2,16.59c0.345,3.656.544,7.333,0.577,11.031a127.565,127.565,0,0,1-6.755,42.149Zm44.331-70.933a129.993,129.993,0,0,1,5.814,17.322l-34.645-14.3c1.329-18.508-.091-35.424-4.145-49.555q2.906,2.6,5.662,5.393A128.4,128.4,0,0,1,775.908,476.555ZM655.934,397.179q3.921-.034,7.818.17c-12.839,7.16-25.774,18.152-37.882,32.211l-34.644-14.3a130,130,0,0,1,16.336-8.18A128.367,128.367,0,0,1,655.934,397.179ZM538.1,575.446a130.028,130.028,0,0,1-5.814-17.321l34.644,14.3c-1.329,18.508.092,35.423,4.146,49.555q-2.905-2.6-5.663-5.394A128.373,128.373,0,0,1,538.1,575.446ZM658.07,654.823q-3.921.035-7.817-.17c12.838-7.16,25.773-18.152,37.881-32.211l34.644,14.3a129.733,129.733,0,0,1-16.336,8.181A128.363,128.363,0,0,1,658.07,654.823Z"/>
</svg>
