<svg xmlns="http://www.w3.org/2000/svg" width="1000" height="1000" viewBox="0 0 1000 1000">
  <defs>
    <style>
      .cls-1 {
        fill-rule: evenodd;
      }
    </style>
  </defs>
  <path id="Push_to_mobile" data-name="Push to mobile" class="cls-1" d="M300,698V825H699.982V150H300V522c-9.333,7.732-30.821,11.725-50,3V125a49.826,49.826,0,0,1,49.782-50h400.25A49.984,49.984,0,0,1,750,125V875a49.984,49.984,0,0,1-49.968,50H299.782A49.826,49.826,0,0,1,250,875V675C265.723,687.725,290.825,696,300,698ZM537.421,100H462.394a12.5,12.5,0,1,0,0,25h75.027A12.5,12.5,0,1,0,537.421,100ZM499.907,900A25,25,0,1,0,474.9,875,25.005,25.005,0,0,0,499.907,900ZM457.688,634.839L533.03,559.4,600,626.457v-215.9A35.538,35.538,0,0,0,564.484,375H348.862l66.97,67.055L340.49,517.492l-16.742,16.764a70.969,70.969,0,0,1-100.455,0l-27.178-27.212A153.917,153.917,0,0,0,457.688,634.839Z"/>
</svg>
