<?xml version="1.0" encoding="utf-8"?>
<!-- Generator: Adobe Illustrator 23.0.3, SVG Export Plug-In . SVG Version: 6.00 Build 0)  -->
<svg version="1.1" id="Calque_1" xmlns="http://www.w3.org/2000/svg" xmlns:xlink="http://www.w3.org/1999/xlink" x="0px" y="0px"
	 viewBox="0 0 39 47.3" style="enable-background:new 0 0 39 47.3;" xml:space="preserve">
<g>
	<path d="M37.5,5.6c-6.7,0-13-2.1-18-5.6c-5,3.5-11.2,5.6-18,5.6L0,5.6v15.3c0,10.3,6,22.3,19.5,26.4C33,43.1,39,31.2,39,20.9V5.6
		H37.5z M32,25.7c0,1.2-0.9,2.1-2.1,2.1H19.5v16.6C7.9,40.9,2.8,30.6,2.8,21.8V8.7l1.3-0.1c5.7-0.3,11-1.8,15.4-5V18h10.4
		c1.2,0,2.1,0.9,2.1,2.1V25.7z"/>
	<path d="M24.1,22.3c0-0.1-0.1-0.1-0.2-0.1l-1,0.4v-1.1c0-0.1-0.1-0.2-0.2-0.2h-0.5c-0.1,0-0.2,0.1-0.2,0.2v1.1l-0.9-0.4
		c0,0,0,0,0,0c-0.1,0-0.2,0-0.2,0.1l-0.2,0.5c0,0.1,0,0.2,0.1,0.2l1,0.3l-0.6,0.9c-0.1,0.1,0,0.2,0,0.2l0.4,0.3c0,0,0,0,0,0
		c0.1,0,0.2,0,0.2,0l0.6-0.9l0.6,0.9c0,0,0,0,0,0c0.1,0.1,0.1,0.1,0.2,0l0.4-0.3c0.1-0.1,0.1-0.2,0-0.2l-0.6-0.9l1-0.3
		c0.1,0,0.1-0.1,0.1-0.2L24.1,22.3C24.1,22.3,24.1,22.3,24.1,22.3z"/>
	<rect x="26.4" y="24" width="2.8" height="0.7"/>
	<path d="M9,18C7.9,18,7,18.9,7,20.1v5.6c0,1.2,0.9,2.1,2.1,2.1h10.4V18H9z M13.1,23l-1,0.3l0.6,0.9c0.1,0.1,0,0.2,0,0.2l-0.4,0.3
		c-0.1,0.1-0.2,0-0.2,0c0,0,0,0,0,0l-0.6-0.9l-0.6,0.9c0,0.1-0.1,0.1-0.2,0c0,0,0,0,0,0l-0.4-0.3c-0.1-0.1-0.1-0.2,0-0.2l0.6-0.9
		l-1-0.3c-0.1,0-0.1-0.1-0.1-0.2l0.2-0.5c0-0.1,0.1-0.1,0.2-0.1c0,0,0,0,0,0l0.9,0.4v-1.1c0-0.1,0.1-0.2,0.2-0.2h0.5
		c0.1,0,0.2,0.1,0.2,0.2v1.1l1-0.4c0.1,0,0.2,0,0.2,0.1c0,0,0,0,0,0l0.2,0.5C13.2,22.8,13.2,22.9,13.1,23z M18.6,23l-1,0.3l0.6,0.9
		c0.1,0.1,0,0.2,0,0.2l-0.4,0.3c-0.1,0.1-0.2,0-0.2,0c0,0,0,0,0,0L17,23.7l-0.6,0.9c0,0.1-0.1,0.1-0.2,0c0,0,0,0,0,0l-0.4-0.3
		c-0.1-0.1-0.1-0.2,0-0.2l0.6-0.9l-1-0.3c-0.1,0-0.1-0.1-0.1-0.2l0.2-0.5c0-0.1,0.1-0.1,0.2-0.1c0,0,0,0,0,0l0.9,0.4v-1.1
		c0-0.1,0.1-0.2,0.2-0.2h0.5c0.1,0,0.2,0.1,0.2,0.2v1.1l1-0.4c0.1,0,0.2,0,0.2,0.1c0,0,0,0,0,0l0.2,0.5C18.7,22.8,18.7,22.9,18.6,23
		z"/>
</g>
</svg>
