<?xml version="1.0" encoding="utf-8"?>
<!-- Generator: Adobe Illustrator 23.0.3, SVG Export Plug-In . SVG Version: 6.00 Build 0)  -->
<svg version="1.1" id="Calque_1" xmlns="http://www.w3.org/2000/svg" xmlns:xlink="http://www.w3.org/1999/xlink" x="0px" y="0px"
	 viewBox="0 0 36.2 46.9" style="enable-background:new 0 0 36.2 46.9;" xml:space="preserve">
<style type="text/css">
	.st0{fill-rule:evenodd;clip-rule:evenodd;}
</style>
<path id="send_to_person" class="st0" d="M31,9.9c0,5.5-4.4,9.9-9.9,9.9s-9.9-4.4-9.9-9.9S15.6,0,21.1,0S31,4.4,31,9.9z M29.8,19.1
	c-4.9,4.6-12.5,4.6-17.4,0c-3.8,2.1-6.4,6-6.5,10.6v0.7H3c-1.7,0-3,1.2-3,2.9v4.5c0,1.7,1.4,3,3,3h2.9v0.6c0,3,2.5,5.6,5.5,5.6h24.8
	V30C36.3,25.5,33.8,21.3,29.8,19.1z M17.6,36.8l-7,7v-4.5H3c-0.8,0-1.5-0.7-1.5-1.5v-4.6c0-0.8,0.7-1.4,1.5-1.4h7.5v-4.5l7,6.9
	c0.3,0.3,0.5,0.8,0.5,1.3C18.1,35.9,17.9,36.4,17.6,36.8L17.6,36.8L17.6,36.8z"/>
</svg>
