<?xml version="1.0" encoding="utf-8"?>
<!-- Generator: Adobe Illustrator 23.0.3, SVG Export Plug-In . SVG Version: 6.00 Build 0)  -->
<svg version="1.1" id="Calque_1" xmlns="http://www.w3.org/2000/svg" xmlns:xlink="http://www.w3.org/1999/xlink" x="0px" y="0px"
	 viewBox="0 0 1000 1000" style="enable-background:new 0 0 1000 1000;" xml:space="preserve">
<style type="text/css">
	.st0{fill-rule:evenodd;clip-rule:evenodd;}
</style>
<path id="Wallet" class="st0" d="M913.9,618h-25.1c-41.5,0-75.2-33.7-75.2-75.2c0-41.5,33.7-75.2,75.2-75.2h25.1
	c13.8,0,25.1,11.2,25.1,25.1l0,0V593C939,606.8,927.8,618,913.9,618z M87.1,292.3c0-55.4,44.9-100.2,100.2-100.2h626.4v75.2h75.2
	v175.4c-55.4,0-100.2,44.9-100.2,100.2s44.9,100.2,100.2,100.2v175.4H187.3c-55.4,0-100.2-44.9-100.2-100.2l0,0 M788.7,217.1H212.3
	c-13.8,0-25.1,11.2-25.1,25.1c0,13.8,11.2,25.1,25.1,25.1h576.3V217.1z"/>
</svg>
